<?xml version="1.0" standalone="no"?><!DOCTYPE svg PUBLIC "-//W3C//DTD SVG 1.1//EN" "http://www.w3.org/Graphics/SVG/1.1/DTD/svg11.dtd"><svg width="200" height="200" viewBox="0 0 200 200" version="1.1" xmlns="http://www.w3.org/2000/svg" xmlns:xlink="http://www.w3.org/1999/xlink"><defs><style type="text/css"><![CDATA[
@font-face { font-family: ifont; src: url("//at.alicdn.com/t/font_1442373896_4754455.eot?#iefix") format("embedded-opentype"), url("//at.alicdn.com/t/font_1442373896_4754455.woff") format("woff"), url("//at.alicdn.com/t/font_1442373896_4754455.ttf") format("truetype"), url("//at.alicdn.com/t/font_1442373896_4754455.svg#ifont") format("svg"); }

]]></style></defs><g class="transform-group"><g transform="scale(0.1953125, 0.1953125)"><path d="M54.211765 1024C33.129412 1024 15.058824 1005.929412 15.058824 987.858824c0-21.082353 18.070588-36.141176 39.152941-36.141176l75.294118 0 0-96.376471c0-66.258824 18.070588-132.517647 51.2-189.741176 33.129412-57.223529 81.317647-102.4 138.541176-135.529412l9.035294-6.023529-9.035294-6.023529c-57.223529-33.129412-105.411765-81.317647-138.541176-135.529412-33.129412-57.223529-51.2-123.482353-51.2-189.741176L129.505882 75.294118 54.211765 75.294118C33.129412 75.294118 15.058824 57.223529 15.058824 36.141176 15.058824 18.070588 33.129412 0 54.211765 0l918.588235 0C990.870588 0 1008.941176 18.070588 1008.941176 36.141176c0 21.082353-18.070588 36.141176-39.152941 36.141176l-72.282353 0 0 117.458824c0 66.258824-18.070588 132.517647-51.2 189.741176-33.129412 57.223529-81.317647 102.4-138.541176 135.529412l-9.035294 6.023529 9.035294 6.023529c57.223529 33.129412 105.411765 81.317647 138.541176 135.529412 33.129412 57.223529 51.2 123.482353 51.2 189.741176l0 96.376471 72.282353 0c21.082353 0 39.152941 18.070588 39.152941 36.141176 0 21.082353-18.070588 36.141176-39.152941 36.141176L54.211765 1020.988235zM454.776471 551.152941C454.776471 551.152941 454.776471 551.152941 454.776471 551.152941L454.776471 551.152941c-3.011765 3.011765-3.011765 3.011765-3.011765 3.011765-3.011765 3.011765-9.035294 6.023529-15.058824 6.023529-135.529412 33.129412-231.905882 156.611765-231.905882 295.152941l0 96.376471 617.411765 0 0-96.376471c0-138.541176-96.376471-259.011765-234.917647-295.152941 0 0 0 0-3.011765 0 0 0 0 0-3.011765 0 0 0 0 0 0 0l0 0c-6.023529-3.011765-9.035294-3.011765-12.047059-9.035294l0 0c0 0 0 0 0 0l0 0c0 0 0 0 0 0 0 0 0 0 0 0l0 0c0 0 0 0 0 0l0 0c0-3.011765-3.011765-3.011765-3.011765-6.023529 0 0 0 0 0-3.011765l0 0c0 0 0 0 0 0l0 0c0 0 0 0 0 0l0 0c0 0 0 0 0 0 0 0 0 0 0-3.011765 0 0 0 0 0 0l0 0c0 0 0 0 0 0l0 0c0 0 0 0 0-3.011765l0 0c0 0 0 0 0 0-3.011765-18.070588 9.035294-36.141176 27.105882-39.152941 138.541176-33.129412 234.917647-156.611765 234.917647-295.152941L828.235294 75.294118 204.8 75.294118l0 117.458824c0 138.541176 96.376471 259.011765 234.917647 295.152941 6.023529 0 9.035294 3.011765 12.047059 6.023529l0 0c0 0 0 0 0 0l0 0 0 0c6.023529 6.023529 9.035294 12.047059 12.047059 18.070588 3.011765 9.035294 0 15.058824-3.011765 24.094118l0 0c0 0 0 0 0 0 0 0 0 0 0 0 0 0 0 0 0 0 0 0 0 0 0 0l0 0c0 0 0 3.011765-3.011765 3.011765l0 0c0 0 0 0 0 0l0 0C457.788235 548.141176 457.788235 548.141176 454.776471 551.152941L454.776471 551.152941C457.788235 548.141176 457.788235 548.141176 454.776471 551.152941L454.776471 551.152941C454.776471 551.152941 454.776471 551.152941 454.776471 551.152941L454.776471 551.152941 454.776471 551.152941 454.776471 551.152941z" fill="#00bb9c"></path></g></g></svg>